<svg xmlns="http://www.w3.org/2000/svg" viewBox="0 0 152.199 46.302">
  <g fill="#191919">
    <path id="quetz-logo-text" d="M74.788 31.108c1.025-1.026 1.686-2.05 2.238-3.335.733-1.726.986-3.23.986-4.917 0-4.002-1.686-7.193-3.776-9.21-2.568-2.46-6.24-3.666-9.723-3.666-3.743 0-7.226 1.317-9.685 3.704-2.315 2.238-3.781 5.54-3.781 8.99 0 3.004 1.102 6.345 3.45 8.842 1.908 2.05 5.1 4.034 10.198 4.034 2.276 0 4.255-.402 6.422-1.576l2.056 2.348 5.831-.882zm-12.22-5.865l3.89 3.886c-.589.149-1.212.259-1.984.259-1.907 0-3.775-.733-4.95-1.874-1.03-.992-1.835-2.569-1.835-4.438 0-1.797.733-3.632 1.979-4.916 1.284-1.323 3.087-2.018 4.845-2.018 1.577 0 3.56.695 4.878 2.018 1.213 1.212 1.985 3.042 1.985 4.547 0 1.174-.37 2.497-1.141 3.6l-1.687-1.836zm0 0M81.536 18.6v10.237c0 1.576.292 3.042 1.544 4.365 1.94 2.09 4.95 2.348 7.408 2.348 2.238 0 5.066-.22 7.083-2.31 1.466-1.504 1.577-3.009 1.577-4.403V18.6h-5.87v9.172c0 .733-.111 1.576-.844 2.31-.662.622-1.356.7-2.09.7-.7 0-1.471-.11-2.055-.629-.772-.694-.882-1.72-.882-2.381V18.6zm0 0M120.573 27.26c0-1.835-.292-4.696-2.607-6.901-1.94-1.836-4.398-2.238-6.306-2.238-3.23 0-5.357 1.064-6.713 2.387-1.434 1.394-2.459 3.594-2.459 6.344 0 3.12 1.356 5.138 2.42 6.201 2.017 2.018 4.625 2.497 6.785 2.497 3.561 0 5.468-1.102 6.681-2.276 1.207-1.174 1.72-2.458 1.979-3.374h-5.611c-.26.513-.662.882-1.031 1.097-.733.408-1.759.441-1.907.441-1.318 0-2.05-.44-2.42-.804-.7-.7-1.025-1.875-1.025-2.751h12.214zm-12.033-2.756c.11-.733.474-1.317.882-1.758.623-.623 1.395-.882 2.382-.882.59 0 1.653.11 2.425.882.435.44.805 1.135.954 1.758zm0 0M133.782 23.407v-4.806h-3.34v-5.397h-5.87v5.397h-1.87v4.806h1.87V35h5.87V23.407zm0 0M152.2 18.6h-16.366v4.807h6.609L134.698 35h16.696v-4.806h-6.862zm0 0"/></g>
    <path id="quetz-logo-swirl" d="M17.567.256C20.921.01 24.43.644 27.663 2.095c.808.363 1.603.77 2.37 1.233.382.231.764.47 1.135.724l.278.19.275.198c.091.066.184.131.274.2l.27.205a23.742 23.742 0 0 1 4.139 4.08l.214.272c.14.184.278.37.416.556l.2.283c.067.095.136.19.2.286.128.193.26.384.383.581l.188.296c.061.097.12.198.181.298l.18.3.171.305c.231.406.447.822.655 1.242a24.728 24.728 0 0 1 1.887 5.34c.029.115.052.231.077.348l.073.35c.045.235.088.469.13.705l.056.353c.018.119.039.237.053.356l.047.355.022.179c.008.06.013.119.02.179.105.952.156 1.912.155 2.875 0 .12 0 .24-.002.36l-.01.362-.006.18-.003.09-.006.094-.02.374c-.006.124-.018.249-.027.373-.012.125-.02.25-.034.374l-.04.374c-.014.124-.033.248-.049.372-.03.25-.072.497-.113.745-.02.125-.044.248-.067.372-.023.124-.046.248-.073.371l-.08.37c-.028.122-.058.245-.088.368l-.044.184-.049.183-.099.367a21.693 21.693 0 0 1-3.326 6.841c-.303.414-.617.82-.947 1.213-.082.1-.167.195-.25.293-.085.097-.17.194-.257.289l-.26.284-.266.28c-.088.093-.18.184-.27.276-.092.09-.182.182-.276.27l-.28.267c-.094.088-.19.173-.286.26-.19.175-.388.34-.583.509l-.3.246a21.19 21.19 0 0 1-1.558 1.154l-.324.216-.329.208-.164.104-.167.1c-.112.066-.222.134-.336.198a22.382 22.382 0 0 1-4.278 1.904l-.187.061c-.062.02-.125.038-.187.057l-.376.112-.38.104a7.397 7.397 0 0 1-.19.05l-.19.047a21.66 21.66 0 0 1-1.54.326l-.388.064c-.129.022-.26.038-.389.057-.26.039-.52.065-.781.096-.523.05-1.047.092-1.572.105l-.197.007-.197.003-.394.004-.393-.006-.197-.003-.197-.008-.393-.016-.392-.026-.196-.014-.206-.019c-.137-.013-.275-.024-.412-.042a19.25 19.25 0 0 1-3.26-.656 19.375 19.375 0 0 1-3.11-1.218 19.4 19.4 0 0 1-2.855-1.742A19.385 19.385 0 0 1 .563 31.636a18.972 18.972 0 0 1-.518-3.312 18.664 18.664 0 0 1-.041-1.673c0-.14.007-.279.012-.418l.008-.208.013-.208c.01-.14.017-.278.03-.416l.019-.208.01-.103a16.532 16.532 0 0 1 .758-3.574 16.434 16.434 0 0 1 1.477-3.233c.147-.257.312-.503.475-.75l.123-.184.13-.18.261-.359c.085-.12.18-.233.272-.349l.28-.344c.094-.113.193-.222.29-.333.1-.109.196-.22.297-.328a16.448 16.448 0 0 1 5.768-3.957c.136-.055.274-.105.41-.158.138-.05.274-.104.413-.15l.419-.136.21-.066.104-.032.106-.029a16.165 16.165 0 0 1 5.195-.59l.217.01.109.007.107.009.431.041c.28.023.597.073.899.118.076.01.152.025.228.04l.228.044.227.045c.038.009.076.015.114.025l.112.027.45.114c.038.01.075.019.112.03l.112.033.222.067.222.07c.037.01.074.022.11.034l.11.04c.146.051.291.104.436.157l.109.041.107.045.214.09c.142.06.286.117.424.186.14.066.279.133.418.201.069.033.136.072.205.107l.203.111.202.11c.068.038.133.08.2.118l.393.242c.129.083.256.17.382.257l.19.13.185.138c.122.092.245.183.366.277.118.098.236.195.353.294.058.05.117.097.173.15l.17.154.168.155c.056.052.113.103.166.157.108.109.215.216.321.326l.08.082.077.083.305.34c.025.029.051.056.075.086l.072.088c.097.117.192.236.287.354.048.058.092.12.138.18l.135.184.133.184c.045.061.086.125.128.187.085.127.168.253.25.38.08.129.157.258.234.388.04.065.078.13.115.196l.108.2c.07.134.142.266.21.4.129.274.26.545.372.825l.087.21.042.105c.014.034.026.07.04.106l.152.425c.189.572.35 1.153.458 1.743l.042.22c.015.075.024.149.036.223l.064.445c.018.148.03.297.045.446l.02.223c.005.074.007.15.01.224l.019.446c.002.15 0 .297 0 .446l-.003.223c-.002.074-.007.148-.011.222l-.026.443c-.013.147-.03.293-.047.44l-.025.22-.007.054-.008.057-.018.118-.038.234c-.014.077-.024.155-.041.233a11.466 11.466 0 0 1-.689 2.262l-.095.216c-.033.072-.062.145-.099.215-.069.142-.14.282-.21.423-.075.138-.152.274-.23.41-.038.07-.08.135-.121.202l-.125.199a11.326 11.326 0 0 1-1.457 1.815 11.155 11.155 0 0 1-2.575 1.921 10.829 10.829 0 0 1-3.432 1.157c-.596.09-1.197.13-1.793.123l-.223-.006-.111-.003-.11-.008c-.149-.01-.297-.021-.444-.033l-.44-.056-.109-.015-.116-.019-.234-.04a8.862 8.862 0 0 1-3.446-1.45 8.712 8.712 0 0 1-2.483-2.669 8.392 8.392 0 0 1-.753-1.634 8.37 8.37 0 0 1-.401-3.489c.01-.145.034-.287.054-.43l.015-.106.02-.113.043-.226c.015-.075.035-.15.053-.224.019-.075.035-.15.057-.223.044-.148.087-.294.14-.438.1-.29.225-.568.36-.84.072-.134.14-.269.221-.397.04-.064.078-.13.12-.192l.124-.188c.042-.063.088-.123.133-.183.044-.06.088-.12.135-.178.095-.115.19-.231.29-.34.2-.22.416-.424.639-.615a6.548 6.548 0 0 1 3.1-1.449l.21-.03.104-.016.106-.01.21-.02.21-.01.104-.005h.105l.209.003c.07.003.139.006.208.011l.103.006c.034.002.07.007.103.01l.206.023c.068.009.135.022.203.032l.101.016.051.01.053.01.212.046c.28.067.554.157.818.267a5.038 5.038 0 0 1 1.42.901c.41.372.756.802 1.014 1.273.258.47.44.974.527 1.487.09.512.089 1.031.01 1.524l-.036.184a2.37 2.37 0 0 1-.02.093l-.023.094a3.521 3.521 0 0 1-1.458 2.08 3.279 3.279 0 0 1-1.275.506c-.442.07-.886.049-1.291-.066l.156-.016.153-.024.151-.03.148-.04c.195-.054.381-.13.554-.222.347-.182.642-.43.87-.715a2.467 2.467 0 0 0 .557-1.668l-.004-.06c0-.02-.002-.04-.004-.062l-.014-.126a3.228 3.228 0 0 0-.102-.485 2.746 2.746 0 0 0-.23-.553c-.021-.034-.038-.069-.06-.102l-.06-.099-.067-.095a2.835 2.835 0 0 0-.295-.347l-.08-.077-.084-.074-.086-.068a.633.633 0 0 0-.044-.034l-.045-.031a2.462 2.462 0 0 0-1.149-.45c-.13-.015-.26-.02-.39-.015l-.097.007-.023.002-.027.002-.054.006c-.035.004-.07.006-.107.011l-.105.017c-.28.046-.542.13-.787.24l-.09.045-.045.022-.044.024-.086.048-.085.053-.041.026-.12.084-.078.06-.038.029-.037.032-.074.061-.07.066c-.023.02-.045.044-.067.067l-.066.068c-.041.049-.085.093-.123.143-.019.025-.04.047-.057.073l-.055.075c-.07.102-.135.204-.188.311-.03.053-.053.108-.078.161-.013.026-.022.055-.033.081-.011.028-.024.054-.032.082l-.028.082c-.01.028-.016.057-.025.084-.019.054-.028.111-.043.165a2.5 2.5 0 0 0-.048.333c-.007.054-.006.11-.008.165-.002.027 0 .055 0 .083.002.028 0 .054.002.082l.006.082c0 .015 0 .026.002.043l.006.048c.007.064.008.128.02.19.034.252.093.493.175.72.164.457.418.864.735 1.194a3.17 3.17 0 0 0 1.083.742 2.861 2.861 0 0 0 1.198.216c.025-.002.051-.002.076-.003h.037l.045-.004.18-.011.18-.021c.014-.003.029-.003.044-.005l.043-.008.088-.015c.232-.041.456-.1.672-.176.43-.156.827-.377 1.173-.651.172-.14.331-.29.477-.451a3.794 3.794 0 0 0 .678-1.061l.029-.072c.01-.023.02-.046.027-.07l.052-.144c.013-.048.028-.097.044-.145.009-.022.012-.048.019-.072l.018-.073c.045-.195.075-.392.09-.589.003-.05.004-.1.008-.149.003-.023 0-.05 0-.074V24.825 24.783l-.004-.09c-.003-.06-.002-.121-.005-.18l-.015-.178c-.003-.03-.003-.06-.007-.09l-.012-.087-.022-.175a6.568 6.568 0 0 1-.032-.173c-.006-.029-.009-.058-.016-.086l-.02-.085c-.015-.056-.026-.113-.04-.17a6.726 6.726 0 0 1-.048-.166c-.008-.028-.013-.056-.023-.083l-.03-.081a5.135 5.135 0 0 0-.334-.787l-.019-.038-.022-.037-.042-.074c-.052-.1-.119-.192-.176-.29a5.14 5.14 0 0 0-1.957-1.742 4.9 4.9 0 0 0-1.198-.41c-.205-.046-.415-.066-.625-.086-.109-.003-.201-.015-.337-.013-.063 0-.126-.002-.188-.003l-.048-.002-.046.002-.094.005a7.042 7.042 0 0 0-2.833.685 7.131 7.131 0 0 0-2.279 1.755 6.852 6.852 0 0 0-1.345 2.475 6.816 6.816 0 0 0-.265 1.437l-.004.051-.007.103c-.006.068-.006.136-.01.204l-.006.102-.002.102c0 .068-.004.136-.002.204a9.445 9.445 0 0 0 .298 2.4 9.47 9.47 0 0 0 .527 1.523 9.825 9.825 0 0 0 4.337 4.675c.478.253.977.468 1.492.642a10.137 10.137 0 0 0 1.594.389c.068.012.136.02.205.03l.103.014.114.012.226.026.228.02.113.01.114.007.228.015.227.008.114.005h.114l.227.003.228-.003c.038 0 .077 0 .115-.002l.113-.004c.075-.003.151-.004.227-.008.152-.01.304-.015.455-.03.076-.007.151-.011.227-.02l.226-.025c.302-.038.604-.078.903-.135l.113-.02.112-.024.224-.046.224-.052c.037-.009.074-.016.111-.026l.11-.029c.298-.072.591-.16.884-.254l.218-.073c.073-.025.145-.052.217-.078l.109-.039.323-.125c.285-.116.57-.24.848-.374.07-.033.138-.07.208-.103l.104-.052c.035-.016.07-.035.103-.054l.207-.107.203-.114c.27-.153.537-.314.798-.487.066-.042.132-.085.195-.13l.194-.131c.126-.093.255-.182.378-.278.502-.376.98-.788 1.43-1.231.226-.22.442-.451.655-.686l.155-.18.078-.09.076-.091c.05-.062.103-.122.152-.184l.148-.187a14.558 14.558 0 0 0 2.788-6.125l.047-.244.012-.062.01-.063.02-.13.042-.258c.014-.086.024-.172.037-.259.19-1.384.243-2.795.138-4.208a20.544 20.544 0 0 0-1.095-5.261l-.091-.259c-.031-.086-.064-.17-.096-.256-.033-.085-.064-.172-.098-.257l-.103-.254c-.138-.34-.29-.675-.444-1.01-.08-.167-.161-.333-.243-.499l-.127-.247c-.043-.082-.085-.165-.13-.246a21.751 21.751 0 0 0-2.532-3.726l-.186-.217c-.061-.073-.126-.143-.189-.215l-.191-.214-.196-.21c-.26-.282-.53-.555-.808-.824-.14-.134-.281-.265-.423-.397l-.217-.193c-.072-.065-.144-.132-.218-.194l-.221-.19-.112-.095-.113-.093c-.151-.123-.302-.248-.458-.365l-.232-.18-.236-.177c-.08-.058-.157-.119-.238-.175l-.241-.17a23.02 23.02 0 0 0-3.092-1.826 24.73 24.73 0 0 0-2.246-.97l-.145-.055-.146-.051-.292-.103c-.097-.037-.196-.068-.295-.1l-.295-.098a3.422 3.422 0 0 0-.15-.047L18.47.52l-.3-.093c-.1-.03-.2-.056-.302-.085zm0 0"/>
    <path id="quetz-logo-swirl-highlight" fill="#fff" stroke="#fff" stroke-width=".49991756000000004" d="M17.567 0c1.65.152 3.285.482 4.864.987a22.16 22.16 0 0 1 4.536 2.027c.715.421 1.41.878 2.074 1.377a22.872 22.872 0 0 1 6.456 7.494c.393.732.746 1.487 1.058 2.257a22.632 22.632 0 0 1 1.6 9.775 18.64 18.64 0 0 1-.913 4.901 18.267 18.267 0 0 1-2.208 4.474A18.245 18.245 0 0 1 31.693 37a18.369 18.369 0 0 1-4.216 2.674 18.264 18.264 0 0 1-4.785 1.43l-.31.046c-.102.015-.206.025-.31.039-.207.027-.415.043-.623.063-.104.01-.208.015-.313.023l-.155.01c-.053.005-.105.006-.157.008l-.313.014-.313.006-.157.003h-.156l-.313-.002-.314-.01-.156-.005-.469-.028-.312-.026-.156-.012-.155-.017c-.104-.012-.21-.021-.312-.036a14.856 14.856 0 0 1-2.451-.527c-.8-.247-1.58-.56-2.326-.94a14.826 14.826 0 0 1-2.13-1.323 14.74 14.74 0 0 1-4.645-5.826A14.475 14.475 0 0 1 5.08 28.96a14.722 14.722 0 0 1-.11-3.755 11.774 11.774 0 0 1 3.02-6.78 11.923 11.923 0 0 1 4.073-2.889 11.746 11.746 0 0 1 4.905-.928l.157.003c.027 0 .052 0 .079.002l.078.006.313.022c.21.01.418.042.627.066.052.006.104.016.156.025l.154.027.156.027c.026.005.052.008.077.014l.078.017.307.07.077.018.379.106.076.022.074.025.3.1c.024.01.05.016.073.026l.221.086c.097.04.197.075.292.12l.286.13c.049.02.095.046.142.07l.14.07.141.073c.047.022.091.051.137.076l.273.157c.09.056.178.113.266.17l.133.084.129.092c.085.06.171.12.255.183l.249.195c.04.033.083.064.122.099l.119.103.119.103c.04.035.08.068.117.105l.228.217.057.055.055.057.108.114.109.114.053.058.052.06.206.237c.035.04.066.082.098.123l.097.124.098.124c.032.041.061.085.092.128l.182.257.17.265c.028.045.057.088.084.133l.08.136c.05.092.105.182.154.274a9.42 9.42 0 0 1 1.109 4.852c-.004.105-.014.21-.021.313-.008.105-.014.21-.029.314l-.019.157c-.007.051-.011.105-.021.156l-.055.31a7.81 7.81 0 0 1-.348 1.212l-.058.147c-.02.049-.036.099-.059.146l-.13.288-.143.28c-.023.048-.05.094-.076.138l-.078.138a7.42 7.42 0 0 1-1.614 1.923c-.32.272-.662.517-1.022.734a7.608 7.608 0 0 1-2.336.912 7.78 7.78 0 0 1-1.249.148l-.157.004-.079.002h-.079l-.314-.007-.314-.023-.078-.006-.078-.009-.157-.02a5.978 5.978 0 0 1-2.355-.851 6.086 6.086 0 0 1-1.804-1.734 5.995 5.995 0 0 1-1.037-3.566c0-.104.012-.209.018-.314.006-.104.023-.208.035-.312.006-.053.018-.104.026-.156.01-.051.016-.104.03-.155.023-.102.045-.204.075-.305a4.796 4.796 0 0 1 1.272-2.14 4.843 4.843 0 0 1 2.166-1.22l.153-.036.077-.017.077-.014.154-.027.155-.02.079-.01.234-.019.157-.004.078-.002c.027 0 .053 0 .08.002l.155.004c.053.002.105.007.157.01.104.006.208.021.312.034.207.033.412.081.611.146a3.854 3.854 0 0 1 1.579.99 3.825 3.825 0 0 1 1.067 2.851 3.101 3.101 0 0 1-.299 1.206 3.072 3.072 0 0 1-1.83 1.593c-.396.126-.817.168-1.23.127a3.03 3.03 0 0 0 2.293-.752 3.014 3.014 0 0 0 1.02-2.176 3.778 3.778 0 0 0-3.224-3.897c-.101-.012-.203-.026-.305-.031-.052-.002-.103-.008-.154-.01l-.154-.002c-.025 0-.051-.002-.077 0l-.077.004-.154.005-.153.013-.076.007-.076.01-.153.02-.15.028-.076.015-.075.017-.15.036a4.738 4.738 0 0 0-2.109 1.205 4.68 4.68 0 0 0-1.226 2.091c-.029.098-.05.199-.071.299-.013.049-.018.1-.028.15-.008.05-.019.1-.025.15-.01.103-.026.203-.03.306-.007.102-.017.204-.017.306a5.852 5.852 0 0 0 1.029 3.471 5.932 5.932 0 0 0 1.762 1.677c.694.431 1.48.708 2.289.815l.152.018.076.01.076.005.307.02.306.006.077.002.077-.003.153-.006a7.524 7.524 0 0 0 1.215-.15 7.439 7.439 0 0 0 2.27-.897 7.483 7.483 0 0 0 1.85-1.588c.26-.314.495-.65.7-1.003l.076-.132c.026-.044.051-.088.073-.135l.138-.273.125-.279c.022-.046.038-.095.057-.142l.056-.143c.142-.381.253-.775.333-1.175l.051-.301c.01-.05.014-.102.02-.152l.02-.152c.013-.1.018-.203.026-.305.006-.102.015-.204.019-.307a9.175 9.175 0 0 0-1.096-4.72c-.048-.09-.102-.177-.152-.266l-.077-.133-.082-.129-.166-.258-.178-.25c-.03-.04-.058-.083-.09-.123l-.19-.241c-.032-.04-.061-.081-.096-.12l-.2-.23-.05-.059-.054-.055-.21-.221a3.942 3.942 0 0 0-.054-.056l-.056-.053-.221-.21c-.037-.037-.076-.07-.115-.103l-.116-.1-.115-.1c-.039-.034-.08-.064-.12-.095l-.241-.19c-.082-.06-.167-.118-.25-.177l-.124-.089-.13-.082-.258-.164-.266-.152c-.045-.024-.088-.052-.134-.074l-.136-.07-.137-.07c-.046-.022-.09-.047-.137-.067l-.28-.125c-.092-.043-.189-.077-.283-.115l-.143-.056-.071-.028-.072-.024-.291-.097-.073-.024c-.024-.008-.05-.014-.073-.02l-.148-.042-.148-.042-.073-.02a2.118 2.118 0 0 0-.074-.017l-.3-.067-.074-.017c-.025-.005-.05-.008-.076-.014l-.15-.025-.15-.026c-.05-.009-.102-.018-.153-.023-.202-.023-.404-.054-.609-.064l-.383-.026c-.025 0-.05 0-.077-.002l-.153-.004a11.46 11.46 0 0 0-4.785.918 11.673 11.673 0 0 0-3.972 2.822 11.494 11.494 0 0 0-2.94 6.612 14.438 14.438 0 0 0 .112 3.678 14.464 14.464 0 0 0 1.046 3.527 14.432 14.432 0 0 0 6.632 7.01c.732.37 1.495.679 2.278.922a14.668 14.668 0 0 0 2.403.518c.1.014.203.023.305.035l.153.017.154.013.307.025.308.018.153.01.154.005.308.01.309.002.154.002.462-.009.308-.013.154-.007.154-.01c.103-.008.205-.013.307-.022.204-.02.41-.035.613-.062.102-.013.205-.022.306-.038l.305-.043a17.987 17.987 0 0 0 8.874-4.023 18.035 18.035 0 0 0 5.496-8.054c.523-1.562.828-3.193.918-4.84a22.783 22.783 0 0 0-.236-4.932 22.522 22.522 0 0 0-3.623-9.132 22.733 22.733 0 0 0-7.153-6.753A22.69 22.69 0 0 0 17.567.005"/></svg>