<svg width="24" height="24" viewBox="0 0 24 24" fill="none" xmlns="http://www.w3.org/2000/svg">
<path d="M14.742 6C13.5491 5.99935 12.4053 5.5251 11.562 4.6815L10.317 3.4395C10.0365 3.15891 9.65625 3.00088 9.2595 3H3.75C3.35706 2.99993 2.97979 3.15405 2.69929 3.42922C2.41879 3.70439 2.25747 4.07864 2.25 4.4715L2.319 6H0.819L0.75 4.5C0.75 3.70435 1.06607 2.94129 1.62868 2.37868C2.19129 1.81607 2.95435 1.5 3.75 1.5H9.258C10.0536 1.50017 10.8165 1.81635 11.379 2.379L12.621 3.621C13.1835 4.18365 13.9464 4.49983 14.742 4.5V6Z" fill="#F2F2F2"/>
<path fill-rule="evenodd" clip-rule="evenodd" d="M20.7155 6H3.28547C3.0771 5.99999 2.87101 6.04339 2.68034 6.12744C2.48967 6.21149 2.31861 6.33434 2.17805 6.48816C2.03749 6.64199 1.93052 6.82341 1.86396 7.02086C1.7974 7.21832 1.77271 7.42747 1.79147 7.635L2.74697 18.135C2.78065 18.5077 2.95241 18.8543 3.22855 19.1069C3.50469 19.3594 3.86526 19.4996 4.23947 19.5H19.7615C20.1357 19.4996 20.4962 19.3594 20.7724 19.1069C21.0485 18.8543 21.2203 18.5077 21.254 18.135L22.2095 7.635C22.2282 7.42747 22.2035 7.21832 22.137 7.02086C22.0704 6.82341 21.9634 6.64199 21.8229 6.48816C21.6823 6.33434 21.5113 6.21149 21.3206 6.12744C21.1299 6.04339 20.9238 5.99999 20.7155 6ZM3.28547 4.5C2.86859 4.49996 2.45627 4.5868 2.07483 4.75499C1.69338 4.92317 1.35117 5.16902 1.07003 5.47683C0.78889 5.78465 0.574989 6.14768 0.441972 6.54276C0.308954 6.93785 0.259739 7.35633 0.297467 7.7715L1.25297 18.2715C1.3207 19.0169 1.6646 19.71 2.21716 20.2148C2.76972 20.7197 3.49102 20.9997 4.23947 21H19.7615C20.5099 20.9997 21.2312 20.7197 21.7838 20.2148C22.3363 19.71 22.6802 19.0169 22.748 18.2715L23.7035 7.7715C23.7412 7.35633 23.692 6.93785 23.559 6.54276C23.4259 6.14768 23.212 5.78465 22.9309 5.47683C22.6498 5.16902 22.3076 4.92317 21.9261 4.75499C21.5447 4.5868 21.1323 4.49996 20.7155 4.5H3.28547Z" fill="#F2F2F2"/>
</svg>
