<svg width="18" height="19" viewBox="0 0 18 19" fill="none" xmlns="http://www.w3.org/2000/svg">
<path fill-rule="evenodd" clip-rule="evenodd" d="M17.125 3.75C17.125 4.08152 16.9933 4.39946 16.7589 4.63388C16.5245 4.8683 16.2065 5 15.875 5H15.25V16.25C15.25 16.913 14.9866 17.5489 14.5178 18.0178C14.0489 18.4866 13.413 18.75 12.75 18.75H5.25C4.58696 18.75 3.95107 18.4866 3.48223 18.0178C3.01339 17.5489 2.75 16.913 2.75 16.25V5H2.125C1.79348 5 1.47554 4.8683 1.24112 4.63388C1.0067 4.39946 0.875 4.08152 0.875 3.75V2.5C0.875 2.16848 1.0067 1.85054 1.24112 1.61612C1.47554 1.3817 1.79348 1.25 2.125 1.25H6.5C6.5 0.918479 6.6317 0.600537 6.86612 0.366117C7.10054 0.131696 7.41848 0 7.75 0L10.25 0C10.5815 0 10.8995 0.131696 11.1339 0.366117C11.3683 0.600537 11.5 0.918479 11.5 1.25H15.875C16.2065 1.25 16.5245 1.3817 16.7589 1.61612C16.9933 1.85054 17.125 2.16848 17.125 2.5V3.75ZM4.1475 5L4 5.07375V16.25C4 16.5815 4.1317 16.8995 4.36612 17.1339C4.60054 17.3683 4.91848 17.5 5.25 17.5H12.75C13.0815 17.5 13.3995 17.3683 13.6339 17.1339C13.8683 16.8995 14 16.5815 14 16.25V5.07375L13.8525 5H4.1475ZM2.125 3.75V2.5H15.875V3.75H2.125Z" fill="#BDBDBD"/>
</svg>
