<?xml version="1.0" encoding="UTF-8" standalone="no"?>
<svg
   width="24"
   height="24"
   viewBox="0 0 15.36 15.36"
   version="1.1"
   id="svg33"
   sodipodi:docname="azure-logo2.svg"
   inkscape:version="1.1.1 (3bf5ae0d25, 2021-09-20)"
   xmlns:inkscape="http://www.inkscape.org/namespaces/inkscape"
   xmlns:sodipodi="http://sodipodi.sourceforge.net/DTD/sodipodi-0.dtd"
   xmlns="http://www.w3.org/2000/svg"
   xmlns:svg="http://www.w3.org/2000/svg">
  <sodipodi:namedview
     id="namedview35"
     pagecolor="#ffffff"
     bordercolor="#666666"
     borderopacity="1.0"
     inkscape:pageshadow="2"
     inkscape:pageopacity="0"
     inkscape:pagecheckerboard="false"
     showgrid="false"
     inkscape:zoom="14.745533"
     inkscape:cx="21.057224"
     inkscape:cy="17.157738"
     inkscape:window-width="1920"
     inkscape:window-height="986"
     inkscape:window-x="-11"
     inkscape:window-y="-11"
     inkscape:window-maximized="1"
     inkscape:current-layer="svg33"
     width="24px" />
  <defs
     id="defs23">
    <linearGradient
       id="e399c19f-b68f-429d-b176-18c2117ff73c"
       x1="-1032.172"
       x2="-1059.213"
       y1="145.312"
       y2="65.426003"
       gradientTransform="matrix(0.15999948,0,0,-0.16000054,172.06288,25.321202)"
       gradientUnits="userSpaceOnUse">
      <stop
         offset="0"
         stop-color="#114a8b"
         id="stop2" />
      <stop
         offset="1"
         stop-color="#0669bc"
         id="stop4" />
    </linearGradient>
    <linearGradient
       id="ac2a6fc2-ca48-4327-9a3c-d4dcc3256e15"
       x1="-1023.725"
       x2="-1029.98"
       y1="108.083"
       y2="105.968"
       gradientTransform="matrix(0.15999948,0,0,-0.16000054,172.06288,25.321202)"
       gradientUnits="userSpaceOnUse">
      <stop
         offset="0"
         stop-opacity=".3"
         id="stop7" />
      <stop
         offset=".071"
         stop-opacity=".2"
         id="stop9" />
      <stop
         offset=".321"
         stop-opacity=".1"
         id="stop11" />
      <stop
         offset=".623"
         stop-opacity=".05"
         id="stop13" />
      <stop
         offset="1"
         stop-opacity="0"
         id="stop15" />
    </linearGradient>
    <linearGradient
       id="a7fee970-a784-4bb1-af8d-63d18e5f7db9"
       x1="-1027.165"
       x2="-997.48199"
       y1="147.642"
       y2="68.560997"
       gradientTransform="matrix(0.15999948,0,0,-0.16000054,172.06288,25.321202)"
       gradientUnits="userSpaceOnUse">
      <stop
         offset="0"
         stop-color="#3ccbf4"
         id="stop18" />
      <stop
         offset="1"
         stop-color="#2892df"
         id="stop20" />
    </linearGradient>
  </defs>
  <rect
     style="fill:#000000;stroke-width:0.64"
     id="rect368"
     width="19.574741"
     height="19.574741"
     x="-1.4322969"
     y="-2.0399396" />
  <path
     fill="url(#e399c19f-b68f-429d-b176-18c2117ff73c)"
     d="M 5.3975018,1.08816 H 9.5635687 L 5.2387823,13.902123 A 0.66431784,0.66432224 0 0 1 4.6095044,14.353965 H 1.3672749 A 0.66319785,0.66320224 0 0 1 0.73879698,13.478762 L 4.7680639,1.5400015 A 0.66431784,0.66432224 0 0 1 5.3975018,1.088 Z"
     id="path25"
     style="fill:url(#e399c19f-b68f-429d-b176-18c2117ff73c);stroke-width:0.16" />
  <path
     fill="#0078d4"
     d="M 11.451402,9.682909 H 4.8450236 a 0.30575901,0.30576103 0 0 0 -0.2087993,0.529442 l 4.2451064,3.962253 a 0.66735783,0.66736225 0 0 0 0.455358,0.179361 h 3.7407883 z"
     id="path27"
     style="stroke-width:0.16" />
  <path
     fill="url(#ac2a6fc2-ca48-4327-9a3c-d4dcc3256e15)"
     d="M 5.3975018,1.08816 A 0.65887786,0.65888223 0 0 0 4.7666239,1.5488016 L 0.74375688,13.467882 a 0.66239785,0.66240224 0 0 0 0.62527802,0.886083 h 3.3259092 a 0.71087769,0.7108824 0 0 0 0.5455982,-0.464002 l 0.8022374,-2.364328 2.865591,2.672809 a 0.6779178,0.67792229 0 0 0 0.426558,0.155521 H 13.061797 L 11.427243,9.682909 6.6622977,9.684009 9.5786087,1.08814 Z"
     id="path29"
     style="fill:#e6e6e6;stroke-width:0.16" />
  <path
     fill="url(#a7fee970-a784-4bb1-af8d-63d18e5f7db9)"
     d="M 10.718605,1.5393615 A 0.66319785,0.66320224 0 0 0 10.090127,1.08816 H 5.4471017 A 0.66335785,0.66336224 0 0 1 6.0755796,1.5393615 L 10.105007,13.478602 a 0.66335785,0.66336224 0 0 1 -0.6284783,0.875523 h 4.6431853 a 0.66335785,0.66336224 0 0 0 0.628318,-0.875523 z"
     id="path31"
     style="fill:#ffffff;stroke-width:0.16" />
</svg>
