<svg width="24" height="24" viewBox="0 0 24 24" fill="none" xmlns="http://www.w3.org/2000/svg">
<path d="M12 0C5.36719 0 0 5.36719 0 12C0 18.6328 5.36719 24 12 24C18.6328 24 24 18.6328 24 12C24 5.36719 18.6328 0 12 0ZM18.8953 14.5734C18.5484 15.75 17.9344 16.8422 17.0203 17.6719C16.1484 18.4594 15.0984 18.9797 13.9641 19.2422C12.6984 19.5469 11.3906 19.5469 10.1672 19.2C9.20625 18.9375 8.24531 18.4594 7.4625 17.8453C6.63281 17.1891 5.93438 16.3172 5.45625 15.3563C4.71563 13.8703 4.49531 12.1687 4.8 10.5562C4.93125 9.9 5.14687 9.29062 5.45625 8.68125C6.32812 6.97969 7.85625 5.625 9.68906 4.97344C11.3016 4.40625 13.0922 4.44844 14.7094 5.01562C15.5812 5.32031 16.4109 5.84531 17.1094 6.50156C16.8891 6.76406 16.6313 6.97969 16.3688 7.24219C15.9328 7.67812 15.4547 8.15625 15.0141 8.59687C14.5781 8.16094 14.0109 7.85625 13.4016 7.63594C12.7031 7.41562 11.9156 7.37344 11.2219 7.54688C10.3922 7.72031 9.60938 8.15625 8.99531 8.77031C8.51719 9.24844 8.12344 9.8625 7.90313 10.5141C7.59844 11.4281 7.59844 12.4781 7.90313 13.3922C8.20781 14.3063 8.81719 15.1359 9.60469 15.6609C10.0828 16.0078 10.65 16.2703 11.2641 16.3594C11.8313 16.4906 12.4406 16.4484 13.0547 16.3594C13.6219 16.2703 14.1891 16.0547 14.7141 15.7031C15.5016 15.1781 16.0688 14.3484 16.2 13.3922C14.8453 13.3922 13.4953 13.3922 12.1406 13.3922C12.1406 12.4313 12.1406 11.4703 12.1406 10.5141C14.4516 10.5141 16.8094 10.5141 19.1203 10.5141C19.3312 11.9109 19.2422 13.2656 18.8953 14.5734Z" fill="black"/>
</svg>
