<?xml version="1.0" encoding="utf-8"?>
<!-- Generator: Adobe Illustrator 25.1.0, SVG Export Plug-In . SVG Version: 6.00 Build 0)  -->
<svg version="1.1" id="Layer_1" xmlns="http://www.w3.org/2000/svg" xmlns:xlink="http://www.w3.org/1999/xlink" x="0px" y="0px"
	 viewBox="0 0 400 400" style="enable-background:new 0 0 400 400;" xml:space="preserve">
<style type="text/css">
	.st0{fill:#FFFF00;}
</style>
<g>
	<path id="quetz-logo-swirl" class="st0" d="M173.7,17.8c26.8-2,54.9,3.1,80.8,14.7c6.5,2.9,12.8,6.2,19,9.9
		c3.1,1.8,6.1,3.8,9.1,5.8l2.2,1.5l2.2,1.6c0.7,0.5,1.5,1,2.2,1.6l2.2,1.6c12.3,9.5,23.5,20.4,33.1,32.6l1.7,2.2
		c1.1,1.5,2.2,3,3.3,4.4l1.6,2.3c0.5,0.8,1.1,1.5,1.6,2.3c1,1.5,2.1,3.1,3.1,4.6l1.5,2.4c0.5,0.8,1,1.6,1.4,2.4l1.4,2.4l1.4,2.4
		c1.8,3.2,3.6,6.6,5.2,9.9c6.7,13.6,11.7,27.9,15.1,42.7c0.2,0.9,0.4,1.8,0.6,2.8l0.6,2.8c0.4,1.9,0.7,3.8,1,5.6l0.4,2.8
		c0.1,1,0.3,1.9,0.4,2.8l0.4,2.8l0.2,1.4c0.1,0.5,0.1,1,0.2,1.4c0.8,7.6,1.2,15.3,1.2,23c0,1,0,1.9,0,2.9l-0.1,2.9l0,1.4l0,0.7
		l0,0.8l-0.2,3c0,1-0.1,2-0.2,3c-0.1,1-0.2,2-0.3,3l-0.3,3c-0.1,1-0.3,2-0.4,3c-0.2,2-0.6,4-0.9,6c-0.2,1-0.4,2-0.5,3
		c-0.2,1-0.4,2-0.6,3l-0.6,3c-0.2,1-0.5,2-0.7,2.9l-0.4,1.5l-0.4,1.5l-0.8,2.9c-5.6,19.7-14.6,38.2-26.6,54.7
		c-2.4,3.3-4.9,6.6-7.6,9.7c-0.7,0.8-1.3,1.6-2,2.3c-0.7,0.8-1.4,1.6-2.1,2.3l-2.1,2.3l-2.1,2.2c-0.7,0.7-1.4,1.5-2.2,2.2
		c-0.7,0.7-1.5,1.5-2.2,2.2l-2.2,2.1c-0.8,0.7-1.5,1.4-2.3,2.1c-1.5,1.4-3.1,2.7-4.7,4.1l-2.4,2c-4,3.3-8.2,6.3-12.5,9.2l-2.6,1.7
		l-2.6,1.7l-1.3,0.8l-1.3,0.8c-0.9,0.5-1.8,1.1-2.7,1.6c-10.8,6.3-22.3,11.4-34.2,15.2l-1.5,0.5c-0.5,0.2-1,0.3-1.5,0.5l-3,0.9
		l-3,0.8c-0.5,0.1-1,0.3-1.5,0.4l-1.5,0.4c-4.1,1-8.2,1.9-12.3,2.6l-3.1,0.5c-1,0.2-2.1,0.3-3.1,0.5c-2.1,0.3-4.2,0.5-6.2,0.8
		c-4.2,0.4-8.4,0.7-12.6,0.8l-1.6,0.1l-1.6,0l-3.2,0l-3.1,0l-1.6,0l-1.6-0.1l-3.1-0.1l-3.1-0.2l-1.6-0.1l-1.6-0.2
		c-1.1-0.1-2.2-0.2-3.3-0.3c-8.8-1-17.6-2.7-26.1-5.2c-8.6-2.5-16.9-5.8-24.9-9.7c-8-4-15.6-8.6-22.8-13.9
		c-29-21.4-49.7-52.3-58.4-87.3c-2.2-8.7-3.5-17.6-4.1-26.5c-0.3-4.5-0.4-8.9-0.3-13.4c0-1.1,0.1-2.2,0.1-3.3l0.1-1.7l0.1-1.7
		c0.1-1.1,0.1-2.2,0.2-3.3l0.2-1.7l0.1-0.8c1-9.7,3-19.3,6.1-28.6c3-9,7-17.7,11.8-25.9c1.2-2.1,2.5-4,3.8-6l1-1.5l1-1.4l2.1-2.9
		c0.7-1,1.4-1.9,2.2-2.8l2.2-2.8c0.8-0.9,1.5-1.8,2.3-2.7c0.8-0.9,1.6-1.8,2.4-2.6c12.9-13.7,28.7-24.5,46.1-31.7
		c1.1-0.4,2.2-0.8,3.3-1.3c1.1-0.4,2.2-0.8,3.3-1.2l3.4-1.1l1.7-0.5l0.8-0.3l0.8-0.2c13.5-3.8,27.5-5.4,41.6-4.7l1.7,0.1l0.9,0.1
		l0.9,0.1l3.4,0.3c2.2,0.2,4.8,0.6,7.2,0.9c0.6,0.1,1.2,0.2,1.8,0.3l1.8,0.4l1.8,0.4c0.3,0.1,0.6,0.1,0.9,0.2l0.9,0.2l3.6,0.9
		c0.3,0.1,0.6,0.2,0.9,0.2l0.9,0.3l1.8,0.5l1.8,0.6c0.3,0.1,0.6,0.2,0.9,0.3l0.9,0.3c1.2,0.4,2.3,0.8,3.5,1.3l0.9,0.3l0.9,0.4
		l1.7,0.7c1.1,0.5,2.3,0.9,3.4,1.5c1.1,0.5,2.2,1.1,3.3,1.6c0.6,0.3,1.1,0.6,1.6,0.9l1.6,0.9l1.6,0.9c0.5,0.3,1.1,0.6,1.6,0.9
		l3.1,1.9c1,0.7,2,1.4,3.1,2.1l1.5,1l1.5,1.1c1,0.7,2,1.5,2.9,2.2c0.9,0.8,1.9,1.6,2.8,2.4c0.5,0.4,0.9,0.8,1.4,1.2l1.4,1.2l1.3,1.2
		c0.4,0.4,0.9,0.8,1.3,1.3c0.9,0.9,1.7,1.7,2.6,2.6l0.6,0.7l0.6,0.7l2.4,2.7c0.2,0.2,0.4,0.4,0.6,0.7l0.6,0.7
		c0.8,0.9,1.5,1.9,2.3,2.8c0.4,0.5,0.7,1,1.1,1.4l1.1,1.5l1.1,1.5c0.4,0.5,0.7,1,1,1.5c0.7,1,1.3,2,2,3c0.6,1,1.3,2.1,1.9,3.1
		c0.3,0.5,0.6,1,0.9,1.6l0.9,1.6c0.6,1.1,1.1,2.1,1.7,3.2c1,2.2,2.1,4.4,3,6.6l0.7,1.7l0.3,0.8c0.1,0.3,0.2,0.6,0.3,0.8l1.2,3.4
		c1.5,4.6,2.8,9.2,3.7,13.9l0.3,1.8c0.1,0.6,0.2,1.2,0.3,1.8l0.5,3.6c0.1,1.2,0.2,2.4,0.4,3.6l0.2,1.8c0,0.6,0.1,1.2,0.1,1.8
		l0.2,3.6c0,1.2,0,2.4,0,3.6l0,1.8c0,0.6-0.1,1.2-0.1,1.8l-0.2,3.5c-0.1,1.2-0.2,2.3-0.4,3.5l-0.2,1.8l-0.1,0.4l-0.1,0.5l-0.1,0.9
		l-0.3,1.9c-0.1,0.6-0.2,1.2-0.3,1.9c-1.2,6.2-3.1,12.3-5.5,18.1l-0.8,1.7c-0.3,0.6-0.5,1.2-0.8,1.7c-0.6,1.1-1.1,2.3-1.7,3.4
		c-0.6,1.1-1.2,2.2-1.8,3.3c-0.3,0.6-0.6,1.1-1,1.6l-1,1.6c-3.4,5.2-7.3,10.1-11.7,14.5c-6.1,6.1-13,11.3-20.6,15.4
		c-8.6,4.6-17.8,7.7-27.5,9.3c-4.8,0.7-9.6,1-14.3,1l-1.8,0l-0.9,0l-0.9-0.1c-1.2-0.1-2.4-0.2-3.6-0.3l-3.5-0.4L175,296l-0.9-0.2
		l-1.9-0.3c-9.9-1.9-19.3-5.8-27.6-11.6c-8.1-5.6-14.8-12.9-19.9-21.4c-2.5-4.1-4.5-8.5-6-13.1c-3-9-4.1-18.5-3.2-27.9
		c0.1-1.2,0.3-2.3,0.4-3.4l0.1-0.8l0.2-0.9l0.3-1.8c0.1-0.6,0.3-1.2,0.4-1.8c0.2-0.6,0.3-1.2,0.5-1.8c0.4-1.2,0.7-2.4,1.1-3.5
		c0.8-2.3,1.8-4.5,2.9-6.7c0.6-1.1,1.1-2.2,1.8-3.2c0.3-0.5,0.6-1,1-1.5l1-1.5c0.3-0.5,0.7-1,1.1-1.5c0.4-0.5,0.7-1,1.1-1.4
		c0.8-0.9,1.5-1.8,2.3-2.7c1.6-1.8,3.3-3.4,5.1-4.9c7.1-6,15.7-10,24.8-11.6l1.7-0.2l0.8-0.1l0.8-0.1l1.7-0.2l1.7-0.1l0.8,0h0.8
		l1.7,0c0.6,0,1.1,0,1.7,0.1l0.8,0c0.3,0,0.6,0.1,0.8,0.1l1.6,0.2c0.5,0.1,1.1,0.2,1.6,0.3l0.8,0.1l0.4,0.1l0.4,0.1l1.7,0.4
		c2.2,0.5,4.4,1.3,6.5,2.1c4.2,1.7,8,4.2,11.4,7.2c3.3,3,6,6.4,8.1,10.2c2.1,3.8,3.5,7.8,4.2,11.9c0.7,4.1,0.7,8.2,0.1,12.2
		l-0.3,1.5c0,0.2-0.1,0.5-0.2,0.7l-0.2,0.8c-1.7,6.8-5.8,12.7-11.7,16.6c-3.1,2.1-6.6,3.4-10.2,4c-3.5,0.6-7.1,0.4-10.3-0.5l1.2-0.1
		l1.2-0.2l1.2-0.2l1.2-0.3c1.6-0.4,3-1,4.4-1.8c2.8-1.5,5.1-3.4,7-5.7c3.1-3.7,4.7-8.5,4.5-13.3l0-0.5c0-0.2,0-0.3,0-0.5l-0.1-1
		c-0.2-1.3-0.4-2.6-0.8-3.9c-0.5-1.5-1.1-3-1.8-4.4c-0.2-0.3-0.3-0.6-0.5-0.8l-0.5-0.8l-0.5-0.8c-0.7-1-1.5-1.9-2.4-2.8l-0.6-0.6
		l-0.7-0.6l-0.7-0.5c-0.1-0.1-0.2-0.2-0.4-0.3l-0.4-0.2c-2.7-2-5.9-3.2-9.2-3.6c-1-0.1-2.1-0.2-3.1-0.1l-0.8,0.1l-0.2,0l-0.2,0
		l-0.4,0c-0.3,0-0.6,0-0.9,0.1l-0.8,0.1c-2.2,0.4-4.3,1-6.3,1.9l-0.7,0.4l-0.4,0.2l-0.4,0.2l-0.7,0.4l-0.7,0.4l-0.3,0.2l-1,0.7
		l-0.6,0.5l-0.3,0.2l-0.3,0.3l-0.6,0.5l-0.6,0.5c-0.2,0.2-0.4,0.4-0.5,0.5l-0.5,0.5c-0.3,0.4-0.7,0.7-1,1.1
		c-0.2,0.2-0.3,0.4-0.5,0.6l-0.4,0.6c-0.6,0.8-1.1,1.6-1.5,2.5c-0.2,0.4-0.4,0.9-0.6,1.3c-0.1,0.2-0.2,0.4-0.3,0.6
		c-0.1,0.2-0.2,0.4-0.3,0.7l-0.2,0.7c-0.1,0.2-0.1,0.5-0.2,0.7c-0.2,0.4-0.2,0.9-0.3,1.3c-0.2,0.9-0.3,1.8-0.4,2.7
		c-0.1,0.4,0,0.9-0.1,1.3c0,0.2,0,0.4,0,0.7c0,0.2,0,0.4,0,0.7l0,0.7c0,0.1,0,0.2,0,0.3l0,0.4c0.1,0.5,0.1,1,0.2,1.5
		c0.3,2,0.7,3.9,1.4,5.8c1.3,3.7,3.3,6.9,5.9,9.6c2.4,2.6,5.4,4.6,8.7,5.9c3,1.3,6.3,1.8,9.6,1.7c0.2,0,0.4,0,0.6,0h0.3l0.4,0
		l1.4-0.1l1.4-0.2c0.1,0,0.2,0,0.4,0l0.3-0.1l0.7-0.1c1.9-0.3,3.6-0.8,5.4-1.4c3.4-1.2,6.6-3,9.4-5.2c1.4-1.1,2.6-2.3,3.8-3.6
		c2.3-2.5,4.1-5.4,5.4-8.5l0.2-0.6c0.1-0.2,0.2-0.4,0.2-0.6l0.4-1.2c0.1-0.4,0.2-0.8,0.4-1.2c0.1-0.2,0.1-0.4,0.2-0.6l0.1-0.6
		c0.4-1.6,0.6-3.1,0.7-4.7c0-0.4,0-0.8,0.1-1.2c0-0.2,0-0.4,0-0.6v-0.9v-0.3l0-0.7c0-0.5,0-1,0-1.4l-0.1-1.4c0-0.2,0-0.5-0.1-0.7
		l-0.1-0.7l-0.2-1.4c-0.1-0.5-0.2-0.9-0.3-1.4c0-0.2-0.1-0.5-0.1-0.7l-0.2-0.7c-0.1-0.4-0.2-0.9-0.3-1.4c-0.1-0.4-0.3-0.9-0.4-1.3
		c-0.1-0.2-0.1-0.4-0.2-0.7l-0.2-0.6c-0.7-2.2-1.6-4.3-2.7-6.3l-0.2-0.3l-0.2-0.3l-0.3-0.6c-0.4-0.8-1-1.5-1.4-2.3
		c-3.9-5.9-9.3-10.7-15.7-13.9c-3-1.5-6.3-2.6-9.6-3.3c-1.6-0.4-3.3-0.5-5-0.7c-0.9,0-1.6-0.1-2.7-0.1c-0.5,0-1,0-1.5,0l-0.4,0
		l-0.4,0l-0.8,0c-7.9,0.2-15.6,2.1-22.7,5.5c-7,3.4-13.2,8.2-18.2,14c-4.9,5.8-8.6,12.5-10.8,19.8c-1.1,3.7-1.8,7.6-2.1,11.5l0,0.4
		l-0.1,0.8c0,0.5,0,1.1-0.1,1.6l0,0.8l0,0.8c0,0.5,0,1.1,0,1.6c0,6.5,0.8,12.9,2.4,19.2c1.1,4.2,2.5,8.2,4.2,12.2
		c7.1,16,19.3,29.1,34.7,37.4c3.8,2,7.8,3.7,11.9,5.1c4.2,1.4,8.4,2.4,12.8,3.1c0.5,0.1,1.1,0.2,1.6,0.2l0.8,0.1l0.9,0.1l1.8,0.2
		l1.8,0.2l0.9,0.1l0.9,0.1l1.8,0.1l1.8,0.1l0.9,0h0.9l1.8,0l1.8,0c0.3,0,0.6,0,0.9,0l0.9,0c0.6,0,1.2,0,1.8-0.1
		c1.2-0.1,2.4-0.1,3.6-0.2c0.6-0.1,1.2-0.1,1.8-0.2l1.8-0.2c2.4-0.3,4.8-0.6,7.2-1.1l0.9-0.2l0.9-0.2l1.8-0.4l1.8-0.4
		c0.3-0.1,0.6-0.1,0.9-0.2l0.9-0.2c2.4-0.6,4.7-1.3,7.1-2l1.7-0.6c0.6-0.2,1.2-0.4,1.7-0.6l0.9-0.3l2.6-1c2.3-0.9,4.6-1.9,6.8-3
		c0.6-0.3,1.1-0.6,1.7-0.8l0.8-0.4c0.3-0.1,0.6-0.3,0.8-0.4l1.7-0.9l1.6-0.9c2.2-1.2,4.3-2.5,6.4-3.9c0.5-0.3,1.1-0.7,1.6-1l1.6-1
		c1-0.7,2-1.5,3-2.2c4-3,7.8-6.3,11.4-9.8c1.8-1.8,3.5-3.6,5.2-5.5l1.2-1.4l0.6-0.7l0.6-0.7c0.4-0.5,0.8-1,1.2-1.5l1.2-1.5
		c11.2-14.4,18.8-31.1,22.3-49l0.4-2l0.1-0.5l0.1-0.5l0.2-1l0.3-2.1c0.1-0.7,0.2-1.4,0.3-2.1c1.5-11.1,1.9-22.4,1.1-33.7
		c-1.1-14.4-4-28.5-8.8-42.1l-0.7-2.1c-0.2-0.7-0.5-1.4-0.8-2c-0.3-0.7-0.5-1.4-0.8-2.1l-0.8-2c-1.1-2.7-2.3-5.4-3.6-8.1
		c-0.6-1.3-1.3-2.7-1.9-4l-1-2c-0.3-0.7-0.7-1.3-1-2c-5.7-10.6-12.5-20.6-20.3-29.8l-1.5-1.7c-0.5-0.6-1-1.1-1.5-1.7l-1.5-1.7
		l-1.6-1.7c-2.1-2.3-4.2-4.4-6.5-6.6c-1.1-1.1-2.2-2.1-3.4-3.2l-1.7-1.5c-0.6-0.5-1.2-1.1-1.7-1.6l-1.8-1.5l-0.9-0.8l-0.9-0.7
		c-1.2-1-2.4-2-3.7-2.9l-1.9-1.4l-1.9-1.4c-0.6-0.5-1.3-1-1.9-1.4l-1.9-1.4c-7.9-5.5-16.1-10.4-24.7-14.6c-5.9-2.9-11.9-5.5-18-7.8
		l-1.2-0.4l-1.2-0.4l-2.3-0.8c-0.8-0.3-1.6-0.5-2.4-0.8l-2.4-0.8c-0.4-0.1-0.8-0.3-1.2-0.4l-1.2-0.4l-2.4-0.7
		c-0.8-0.2-1.6-0.4-2.4-0.7L173.7,17.8z"/>
	<path d="M192.2,348.3l-15.9-0.9c-0.6-0.1-1.2-0.1-1.8-0.2c-6.7-0.9-13.4-2.3-19.9-4.3c-6.6-2-12.9-4.6-18.9-7.6
		c-6.1-3.1-11.9-6.7-17.3-10.8c-16.4-12.3-29.5-28.7-37.8-47.4c-4.1-9.4-7.1-19.2-8.7-29.3c-1.6-10.1-1.9-20.4-0.9-30.5
		c2-20.5,10.8-40.2,24.7-55.4c9.4-10.2,20.6-18.1,33.3-23.6c12.8-5.4,26.3-7.9,40.1-7.6l1.2,0c0.1,0,0.5,0,0.7,0l3.1,0.2
		c1.3,0.1,2.6,0.2,3.8,0.4l1.3,0.2c0.4,0,0.8,0.1,1.2,0.2l2.6,0.4l0.7,0.1l8.1,2.1l2.4,0.8l0.7,0.2l2.5,1c0.6,0.2,1.1,0.4,1.7,0.7
		l2.3,1c0.3,0.1,0.6,0.3,1,0.5l2.5,1.3c0.2,0.1,0.5,0.3,0.8,0.4l7,4.4c0.7,0.5,1.4,1,2.1,1.5l2,1.6c0.6,0.5,0.8,0.7,1.1,0.9l1.9,1.6
		c0.5,0.4,0.8,0.7,1,0.9l7,7.4c0.2,0.3,0.5,0.6,0.7,0.9l5.4,7.5l0.3,0.4l2.4,4.1c6.5,12.2,9.7,26,9.1,39.8c0,0.6-0.1,1.1-0.1,1.7
		l-0.1,0.9c-0.1,1.2-0.1,1.9-0.2,2.7l-0.1,1.2c-0.1,0.7-0.1,1.1-0.2,1.4l-0.4,2.5c-0.7,3.4-1.7,6.8-2.9,10l-0.5,1.2
		c-0.3,0.7-0.4,1-0.5,1.3l-2.2,4.6c-0.2,0.3-0.4,0.7-0.6,1L237,241c-3.5,6.1-8,11.4-13.4,15.9c-2.6,2.2-5.5,4.3-8.4,6.1
		c-6,3.6-12.5,6.1-19.3,7.5c-3.4,0.7-6.9,1.1-10.3,1.2l-2.6,0l-7.8-0.5c-7-1-13.6-3.3-19.6-7.1c-6-3.8-11.1-8.6-15-14.4
		c-6-8.8-9-19.1-8.6-29.7c0-0.5,0-1.1,0.1-1.7l0.1-0.8c0-0.6,0.1-1.3,0.2-1.9l0.1-0.7c0-0.3,0.1-0.6,0.1-0.9l0.1-0.5
		c0.1-0.7,0.2-1.1,0.3-1.4c0.2-1,0.4-1.7,0.6-2.5c1.9-6.8,5.6-13,10.7-18c5.1-4.9,11.4-8.5,18.2-10.3l5.8-1l4-0.2c0.3,0,0.6,0,0.8,0
		l2.5,0.1c0.7,0,1.5,0.1,2.2,0.2c2.3,0.4,4.1,0.8,5.7,1.3c5.1,1.7,9.7,4.6,13.4,8.4c6.2,6.5,9.6,15.3,9.1,24.3
		c-0.1,3.6-1,7.1-2.6,10.4c-3.2,6.5-8.9,11.6-15.8,13.8c-3.4,1.1-7.1,1.5-10.6,1.1l0,0c0,0,0,0,0,0l0.4-4c6.1,0.6,12.2-1.4,16.8-5.5
		c4.6-4,7.3-9.9,7.5-16c0.6-14.5-9.7-27-24.1-29.1c-0.9-0.1-1.6-0.2-2.2-0.2l-2.4-0.1l-8.1,0.9l-1.2,0.3c-6,1.6-11.5,4.7-15.9,9.1
		c-4.4,4.4-7.6,9.8-9.3,15.8c-0.2,0.8-0.4,1.5-0.5,2.3c-0.1,0.3-0.1,0.5-0.1,0.7l-0.4,2.4c-0.1,0.5-0.1,0.9-0.1,1.4l-0.1,0.7
		c0,0.6-0.1,1.1-0.1,1.7c-0.2,9.6,2.5,18.8,7.9,26.6c3.6,5.2,8.1,9.5,13.5,12.8c5.2,3.3,11.3,5.4,17.5,6.2l7.7,0.5l1.7-0.1
		c3.1-0.1,6.3-0.5,9.4-1.2c6.2-1.3,12.1-3.7,17.5-6.9c5.4-3.3,10.2-7.4,14.3-12.3c2-2.5,3.8-5.1,5.4-7.7l0.6-1.1
		c0.2-0.3,0.4-0.6,0.5-0.9l2.1-4.4c0.1-0.2,0.2-0.4,0.3-0.6l0.6-1.6c1.1-2.9,2-6,2.6-9.1l0.4-2.4c0-0.3,0.1-0.5,0.1-0.7l0.2-1.7
		c0.1-0.5,0.1-1,0.1-1.5l0.2-3.2c0.5-12.8-2.4-25.5-8.5-36.7l-5.8-9l-1.5-1.9c-0.4-0.5-0.5-0.7-0.7-0.9l-6.7-7
		c-0.3-0.3-0.6-0.5-0.8-0.7l-1.9-1.6c-0.2-0.2-0.4-0.4-0.7-0.5l-8.1-5.7l-8.5-4.3c-0.5-0.2-1-0.4-1.4-0.6l-5.8-2.1l-0.5-0.1
		l-9.3-2.1c-0.4-0.1-0.7-0.1-1.1-0.2l-1.4-0.2c-1.1-0.1-2.2-0.3-3.4-0.3l-3.1-0.2c-0.1,0-0.4,0-0.6,0l-1.1,0
		c-12.9-0.3-25.5,2.1-37.4,7.2c-11.9,5.1-22.3,12.6-31.1,22.1c-12.9,14.2-21.1,32.6-23,51.7c-0.9,9.6-0.6,19.4,0.9,28.9
		c1.5,9.5,4.3,18.9,8.2,27.7c10.5,23.7,29,43.3,52.1,55.1c5.7,2.9,11.8,5.3,17.9,7.2c6.2,1.9,12.5,3.2,18.9,4.1
		c0.5,0.1,1.1,0.1,1.6,0.2l13,0.9l3.7,0l12.2-0.6c1.2-0.1,2.3-0.2,3.5-0.4l1.1-0.1c0.5-0.1,0.9-0.1,1.4-0.2l2.5-0.3
		c25.8-3.9,50-14.9,70-31.7c20-16.8,35-38.8,43.4-63.5c4.1-12.2,6.5-25.1,7.2-38.2c0.8-13,0.2-26.2-1.9-39
		c-4.1-25.7-14-50.7-28.7-72.2c-14.6-21.6-34.2-40.1-56.6-53.4c-22.4-13.4-48-21.8-74-24.4l0.4-4c13.4,1.2,26.6,3.9,39.3,8
		c12.8,4.1,25.1,9.6,36.7,16.4c6,3.5,11.6,7.3,16.8,11.1c21.5,16,39.5,37,52.2,60.6c3.1,5.8,6,11.9,8.6,18.2
		c10,24.9,14.5,52.3,12.9,79.1c-0.7,13.5-3.2,26.9-7.4,39.7c-4.3,12.9-10.3,25.1-17.9,36.3c-7.6,11.2-16.7,21.3-27.1,30.1
		c-10.4,8.8-21.9,16-34.2,21.7c-12.4,5.6-25.4,9.5-38.8,11.6l-2.5,0.4c-0.5,0.1-1,0.1-1.6,0.2l-0.9,0.1c-1.2,0.2-2.4,0.3-3.6,0.4
		l-5.3,0.4c-0.3,0-0.7,0-1.1,0.1L192.2,348.3z M182.6,134.3L182.6,134.3l0-0.2L182.6,134.3z"/>
</g>
</svg>
